<svg version="1.1" id="Layer_1" xmlns="http://www.w3.org/2000/svg" xmlns:xlink="http://www.w3.org/1999/xlink" x="0px" y="0px"
	 viewBox="0 0 424.5 277.5" style="enable-background:new 0 0 424.5 277.5;" xml:space="preserve">

<polygon class="st0" points="386.7,173.9 38.2,173.9 223.9,10.2 "/>
<polygon class="st1" points="386.7,173.9 319.7,173.9 255.9,87.3 238.5,100.6 249.8,71.1 223.9,10.2 "/>
<polygon class="st0" points="283.8,173.9 38.2,173.9 113.6,70.9 "/>
<polygon class="st1" points="283.8,173.9 221.1,173.9 177.5,142.4 162.8,155.4 142.6,112.1 113.6,70.9 "/>
<g>
	<path class="st0" d="M416.8,266.8H8.1v-95.9h408.7V266.8z M14.1,260.8h396.7v-83.9H14.1V260.8z"/>
</g>
<g>
	<path class="st0" d="M49.2,235.7l-7.9-32.9h6.8l5,22.6l6-22.6H67l5.8,23l5.1-23h6.7l-8,32.9h-7.1L63,211.1l-6.5,24.6H49.2z"/>
	<path class="st0" d="M88,235.7v-32.9h6.6v13h13v-13h6.6v32.9h-6.6v-14.4h-13v14.4H88z"/>
	<path class="st0" d="M119.8,219.5c0-3.4,0.5-6.2,1.5-8.4c0.7-1.7,1.8-3.2,3.1-4.5c1.3-1.3,2.7-2.3,4.3-3c2.1-0.9,4.4-1.3,7.1-1.3
		c4.9,0,8.7,1.5,11.6,4.5c2.9,3,4.4,7.2,4.4,12.6c0,5.3-1.4,9.5-4.3,12.5c-2.9,3-6.8,4.5-11.6,4.5c-4.9,0-8.8-1.5-11.7-4.5
		C121.3,228.8,119.8,224.7,119.8,219.5z M126.7,219.3c0,3.7,0.9,6.6,2.6,8.5c1.7,1.9,3.9,2.9,6.6,2.9s4.8-1,6.5-2.9
		c1.7-1.9,2.5-4.8,2.5-8.6c0-3.8-0.8-6.6-2.5-8.4c-1.7-1.9-3.9-2.8-6.6-2.8s-4.9,0.9-6.6,2.8C127.5,212.6,126.7,215.5,126.7,219.3z"
		/>
	<path class="st0" d="M156.8,202.9h6.3v4.5c0,1.8-0.2,3.3-0.5,4.3c-0.3,1.1-0.9,2-1.8,2.8c-0.9,0.8-2,1.5-3.3,2l-1.2-2.6
		c1.3-0.4,2.2-1,2.7-1.7s0.8-1.7,0.9-3h-3.1V202.9z"/>
	<path class="st0" d="M168.1,225l6.5-0.6c0.4,2.2,1.2,3.8,2.4,4.8c1.2,1,2.8,1.5,4.8,1.5c2.1,0,3.8-0.5,4.8-1.4
		c1.1-0.9,1.6-2,1.6-3.2c0-0.8-0.2-1.4-0.7-2c-0.5-0.5-1.3-1-2.4-1.4c-0.8-0.3-2.6-0.7-5.3-1.4c-3.6-0.9-6.1-2-7.5-3.3
		c-2-1.8-3-4-3-6.6c0-1.7,0.5-3.2,1.4-4.7c1-1.5,2.3-2.6,4.1-3.3c1.8-0.8,4-1.1,6.5-1.1c4.1,0,7.2,0.9,9.3,2.7
		c2.1,1.8,3.2,4.2,3.3,7.3l-6.6,0.3c-0.3-1.7-0.9-2.9-1.8-3.7c-0.9-0.7-2.3-1.1-4.2-1.1c-1.9,0-3.4,0.4-4.5,1.2
		c-0.7,0.5-1.1,1.2-1.1,2c0,0.8,0.3,1.4,1,2c0.8,0.7,2.9,1.4,6.1,2.2s5.6,1.6,7.2,2.4c1.6,0.8,2.8,1.9,3.6,3.3
		c0.9,1.4,1.3,3.2,1.3,5.2c0,1.9-0.5,3.7-1.6,5.3s-2.5,2.9-4.4,3.7c-1.9,0.8-4.3,1.2-7.2,1.2c-4.2,0-7.4-1-9.6-2.9
		C169.8,231.5,168.5,228.7,168.1,225z"/>
	<path class="st0" d="M213.2,202.8h12.2c2.7,0,4.8,0.2,6.3,0.6c1.9,0.6,3.6,1.6,5,3s2.4,3.2,3.1,5.3c0.7,2.1,1.1,4.7,1.1,7.8
		c0,2.7-0.3,5-1,7c-0.8,2.4-2,4.3-3.5,5.8c-1.2,1.1-2.7,2-4.7,2.6c-1.5,0.5-3.4,0.7-5.9,0.7h-12.5V202.8z M219.8,208.4v21.8h5
		c1.9,0,3.2-0.1,4-0.3c1.1-0.3,2-0.7,2.7-1.4c0.7-0.6,1.3-1.7,1.7-3.2c0.4-1.5,0.7-3.5,0.7-6s-0.2-4.5-0.7-5.9s-1.1-2.4-1.9-3.2
		s-1.8-1.3-3.1-1.5c-0.9-0.2-2.7-0.3-5.5-0.3H219.8z"/>
	<path class="st0" d="M246.4,202.8h6.6v17.8c0,2.8,0.1,4.7,0.2,5.5c0.3,1.3,1,2.4,2,3.2c1.1,0.8,2.5,1.2,4.4,1.2
		c1.9,0,3.3-0.4,4.3-1.2c1-0.8,1.5-1.7,1.7-2.8s0.3-3,0.3-5.6v-18.2h6.6v17.3c0,4-0.2,6.7-0.5,8.4s-1,3-2,4.1c-1,1.1-2.3,2-3.9,2.7
		c-1.6,0.7-3.7,1-6.3,1c-3.1,0-5.5-0.4-7.2-1.1c-1.6-0.7-2.9-1.7-3.9-2.8c-0.9-1.2-1.6-2.4-1.9-3.7c-0.4-1.9-0.7-4.7-0.7-8.4V202.8z
		"/>
	<path class="st0" d="M278,225l6.5-0.6c0.4,2.2,1.2,3.8,2.4,4.8c1.2,1,2.8,1.5,4.8,1.5c2.1,0,3.8-0.5,4.8-1.4c1.1-0.9,1.6-2,1.6-3.2
		c0-0.8-0.2-1.4-0.7-2c-0.5-0.5-1.3-1-2.4-1.4c-0.8-0.3-2.6-0.7-5.3-1.4c-3.6-0.9-6.1-2-7.5-3.3c-2-1.8-3-4-3-6.6
		c0-1.7,0.5-3.2,1.4-4.7c1-1.5,2.3-2.6,4.1-3.3c1.8-0.8,4-1.1,6.5-1.1c4.1,0,7.2,0.9,9.3,2.7c2.1,1.8,3.2,4.2,3.3,7.3l-6.6,0.3
		c-0.3-1.7-0.9-2.9-1.8-3.7c-0.9-0.7-2.3-1.1-4.2-1.1c-1.9,0-3.4,0.4-4.5,1.2c-0.7,0.5-1.1,1.2-1.1,2c0,0.8,0.3,1.4,1,2
		c0.8,0.7,2.9,1.4,6.1,2.2s5.6,1.6,7.2,2.4c1.6,0.8,2.8,1.9,3.6,3.3c0.9,1.4,1.3,3.2,1.3,5.2c0,1.9-0.5,3.7-1.6,5.3
		s-2.5,2.9-4.4,3.7c-1.9,0.8-4.3,1.2-7.2,1.2c-4.2,0-7.4-1-9.6-2.9C279.7,231.5,278.4,228.7,278,225z"/>
	<path class="st0" d="M317.7,235.7v-27.4H308v-5.6h26.2v5.6h-9.7v27.4H317.7z"/>
	<path class="st0" d="M338.2,235.7v-32.9h6.6v32.9H338.2z"/>
	<path class="st0" d="M351.3,235.7v-32.9h6.5l13.5,22v-22h6.2v32.9h-6.7l-13.3-21.5v21.5H351.3z"/>
</g>
</svg>
