<svg version="1.1" id="Capa_1" xmlns="http://www.w3.org/2000/svg" xmlns:xlink="http://www.w3.org/1999/xlink" x="0px" y="0px"
	 viewBox="0 0 470.333 470.333" style="enable-background:new 0 0 470.333 470.333;" xml:space="preserve">
	 <style>
	 	.st1{fill:rgb(135, 196, 66);}
	 </style>
<g>
	<g>
		<path class="st1" d="M235.167,470.333c129.767,0,235.167-105.4,235.167-235.167S364.933,0,235.167,0S0,105.4,0,235.167
			S105.4,470.333,235.167,470.333z M235.167,34c110.783,0,201.167,90.383,201.167,201.167S345.95,436.333,235.167,436.333
			S34,345.95,34,235.167S124.383,34,235.167,34z"/>
		<path class="st1" d="M164.333,196.633c7.083,0,13.883-2.833,18.983-7.933c10.483-10.483,10.483-27.483,0-37.967
			c-5.1-5.1-11.9-7.933-18.983-7.933s-13.883,2.833-18.983,7.933c-10.483,10.483-10.483,27.483,0,37.967
			C150.45,193.8,157.25,196.633,164.333,196.633z"/>
		<path class="st1" d="M299.2,196.633c7.083,0,13.883-2.833,18.983-7.933c10.483-10.483,10.483-27.483,0-37.967
			c-5.1-5.1-11.9-7.933-18.983-7.933s-13.883,2.833-18.983,7.933c-10.483,10.483-10.483,27.483,0,37.967
			C285.317,193.8,291.833,196.633,299.2,196.633z"/>
		<path class="st1" d="M230.917,352.75c87.55,0,113.05-58.933,114.183-61.2c3.683-8.783-0.567-18.7-9.067-22.383
			c-8.783-3.683-18.7,0.283-22.1,9.067c-0.85,1.7-18.7,40.517-82.733,40.517c-62.05,0-73.1-36.55-73.667-38.25v0.283L124.383,289
			C125.233,291.55,141.383,352.75,230.917,352.75z"/>
	</g>
</g>
</svg>
